<svg width="64" height="65" viewBox="0 0 64 65" fill="none" xmlns="http://www.w3.org/2000/svg">
<g clip-path="url(#clip0_202_14031)">
<rect width="14.4267" height="49.1573" rx="7.21335" transform="matrix(0.914924 -0.403627 0.391345 0.920244 -1.20898 12.4352)" fill="url(#paint0_linear_202_14031)"/>
<rect width="14.4267" height="49.1573" rx="7.21335" transform="matrix(-0.914924 -0.403627 -0.391345 0.920244 65.4512 12.4352)" fill="#3B8AFF"/>
<path d="M37.1087 30.6931C38.6678 27.027 36.9769 22.7515 33.332 21.1436C29.6871 19.5356 25.4685 21.204 23.9094 24.8701L15.2592 45.2109C13.7002 48.8769 15.3911 53.1524 19.036 54.7604C22.6809 56.3684 26.8995 54.6999 28.4586 51.0339L37.1087 30.6931Z" fill="url(#paint1_linear_202_14031)"/>
<path fill-rule="evenodd" clip-rule="evenodd" d="M21.9787 30.02L28.7526 45.1139C30.4772 48.9568 28.7249 53.3891 24.8387 55.0137C24.7467 55.0521 24.6543 55.0887 24.5617 55.1233C22.8209 55.7249 20.8658 55.7185 19.0558 54.9619C15.2097 53.3541 13.4754 48.9675 15.1822 45.1643L21.9787 30.02Z" fill="url(#paint2_linear_202_14031)"/>
</g>
<defs>
<linearGradient id="paint0_linear_202_14031" x1="7.21335" y1="0" x2="7.21335" y2="49.1573" gradientUnits="userSpaceOnUse">
<stop offset="0.05" stop-color="#3B8AFF"/>
<stop offset="1" stop-color="#99EEFF"/>
</linearGradient>
<linearGradient id="paint1_linear_202_14031" x1="31.2145" y1="26.8461" x2="18.6582" y2="54.5894" gradientUnits="userSpaceOnUse">
<stop stop-color="#46D7F4"/>
<stop offset="0.665" stop-color="#25C3CE"/>
</linearGradient>
<linearGradient id="paint2_linear_202_14031" x1="22.0964" y1="30.2811" x2="22.0964" y2="55.609" gradientUnits="userSpaceOnUse">
<stop stop-color="#23D3F1"/>
<stop offset="1" stop-color="#3B8AFF"/>
</linearGradient>
<clipPath id="clip0_202_14031">
<rect width="64" height="64" fill="white" transform="translate(0 0.14209)"/>
</clipPath>
</defs>
</svg>
